<svg width="22" height="22" viewBox="0 0 22 22" fill="none" xmlns="http://www.w3.org/2000/svg">
<path d="M7.4171 20.75C7.95107 20.216 8.48505 19.6821 7.99127 16.75M7.4171 14.0836C6.08381 8.75039 7.08378 7.75042 7.4171 7.4171C7.75042 7.08378 8.75039 6.08381 14.0836 7.4171M7.4171 14.0836C2.08394 12.7503 1.41664 13.4163 0.75 14.0829M7.4171 14.0836C12.7503 15.4168 13.7496 14.4162 14.0829 14.0829C14.4162 13.7496 15.4168 12.7503 14.0836 7.4171M20.75 7.4171C20.0834 8.08375 19.4167 8.75039 14.0836 7.4171M14.0829 0.75C13.549 1.28394 13.0154 1.81829 13.5092 4.75" stroke="#64748B" stroke-width="1.5" stroke-linecap="round"/>
</svg>
