<svg width="19" height="19" viewBox="0 0 19 19" fill="none" xmlns="http://www.w3.org/2000/svg">
<path d="M2.23184 9.03554C1.44182 7.658 1.06036 6.53314 0.830352 5.39292C0.490174 3.70656 1.26866 2.05925 2.55831 1.00814C3.10336 0.563897 3.72818 0.715676 4.05049 1.29391L4.77814 2.59933C5.3549 3.63405 5.64327 4.15141 5.58607 4.6999C5.52888 5.2484 5.13996 5.69513 4.36213 6.58858L2.23184 9.03554ZM2.23184 9.03554C3.83091 11.8238 6.34035 14.3346 9.13186 15.9356M9.13186 15.9356C10.5094 16.7256 11.6343 17.107 12.7745 17.337C14.4608 17.6772 16.1082 16.8987 17.1593 15.6091C17.6035 15.064 17.4517 14.4392 16.8735 14.1169L15.5681 13.3893C14.5334 12.8125 14.016 12.5241 13.4675 12.5813C12.919 12.6385 12.4723 13.0274 11.5788 13.8053L9.13186 15.9356Z" stroke="#001E62" stroke-width="1.5" stroke-linejoin="round"/>
</svg>
