<svg width="30" height="28" viewBox="0 0 30 28" fill="none" xmlns="http://www.w3.org/2000/svg">
<path d="M12.5185 1.25423C13.3438 -0.418071 15.7285 -0.418069 16.5538 1.25423L19.3027 6.82412C19.6304 7.48819 20.264 7.94847 20.9968 8.05496L27.1435 8.94813C28.989 9.2163 29.7259 11.4842 28.3905 12.7859L23.9427 17.1215C23.4124 17.6384 23.1704 18.3832 23.2956 19.113L24.3456 25.2349C24.6608 27.073 22.7316 28.4746 21.081 27.6068L15.5831 24.7165C14.9277 24.3719 14.1446 24.3719 13.4891 24.7165L7.99131 27.6068C6.34065 28.4746 4.41143 27.073 4.72668 25.2349L5.77666 19.113C5.90185 18.3832 5.65986 17.6384 5.12957 17.1215L0.681751 12.7859C-0.653662 11.4842 0.0832374 9.2163 1.92873 8.94813L8.07547 8.05496C8.80831 7.94847 9.44183 7.48819 9.76957 6.82412L12.5185 1.25423Z" fill="#EE3D69" fill-opacity="0.1"/>
</svg>
